# xmcd
#
# Track frame offsets:
#	150
#	19501
#	34585
#	54674
#	75753
#	93360
#	110213
#	128117
#	145440
#	169655
#	210153
#	234560
#
# Disc length: 3343
#
# Revision: 2
# Processed by: cddbd v1.5.1PL0 Copyright (c) Steve Scherf et al.
# Submitted via: ExactAudioCopy v0.95a5
# Normalized: r1:TDELIM( - )
#
DISCID=920d0d0c
DTITLE=Various Artist - KSSJ Sampler 2004
DYEAR=2004
DGENRE=Jazz
TTITLE0=Dave Koz - You Make Me Smile
TTITLE1=Chuck Mangione - Feels So Good
TTITLE2=Paul Brown - 24/7
TTITLE3=Al Jarreau - Random Act of Love
TTITLE4=Joyce Cooling - Daddy-O
TTITLE5=Jazzmasters - Puerto Banus
TTITLE6=George Benson - Softly, As in a Morning Sunrise
TTITLE7=Marvin Gaye - What's Going On
TTITLE8=David Benoit - Watermelon Man
TTITLE9=Grover Washington, Jr - Mister Magic
TTITLE10=B. B. King - The Thrill is Gone
TTITLE11=Richard Smith - Sing a Song
EXTD=YEAR: 2004
EXTT0=
EXTT1=
EXTT2=
EXTT3=
EXTT4=
EXTT5=
EXTT6=
EXTT7=
EXTT8=
EXTT9=
EXTT10=
EXTT11=
PLAYORDER=
